<?xml version="1.0" encoding="utf-8"?><!-- Uploaded to: SVG Repo, www.svgrepo.com, Generator: SVG Repo Mixer Tools -->
<svg width="800px" height="800px" viewBox="0 0 24 24" fill="none" xmlns="http://www.w3.org/2000/svg">
<path fill-rule="evenodd" clip-rule="evenodd" d="M5.3783 2C5.3905 2 5.40273 2 5.415 2L7.62171 2C8.01734 1.99998 8.37336 1.99996 8.66942 2.02454C8.98657 2.05088 9.32336 2.11052 9.65244 2.28147C10.109 2.51866 10.4813 2.89096 10.7185 3.34757C10.8895 3.67665 10.9491 4.01343 10.9755 4.33059C11 4.62664 11 4.98265 11 5.37828V7.62172C11 8.01735 11 8.37337 10.9755 8.66942C10.9491 8.98657 10.8895 9.32336 10.7185 9.65244C10.4813 10.109 10.109 10.4813 9.65244 10.7185C9.32336 10.8895 8.98657 10.9491 8.66942 10.9755C8.37337 11 8.01735 11 7.62172 11H5.37828C4.98265 11 4.62664 11 4.33059 10.9755C4.01343 10.9491 3.67665 10.8895 3.34757 10.7185C2.89096 10.4813 2.51866 10.109 2.28147 9.65244C2.11052 9.32336 2.05088 8.98657 2.02454 8.66942C1.99996 8.37336 1.99998 8.01734 2 7.62171L2 5.415C2 5.40273 2 5.3905 2 5.3783C1.99998 4.98266 1.99996 4.62664 2.02454 4.33059C2.05088 4.01343 2.11052 3.67665 2.28147 3.34757C2.51866 2.89096 2.89096 2.51866 3.34757 2.28147C3.67665 2.11052 4.01343 2.05088 4.33059 2.02454C4.62664 1.99996 4.98266 1.99998 5.3783 2ZM4.27752 4.05297C4.27226 4.05488 4.27001 4.05604 4.26952 4.0563C4.17819 4.10373 4.10373 4.17819 4.0563 4.26952C4.05604 4.27001 4.05488 4.27226 4.05297 4.27752C4.05098 4.28299 4.04767 4.29312 4.04372 4.30961C4.03541 4.34427 4.02554 4.40145 4.01768 4.49611C4.00081 4.69932 4 4.9711 4 5.415V7.585C4 8.02891 4.00081 8.30068 4.01768 8.5039C4.02554 8.59855 4.03541 8.65574 4.04372 8.6904C4.04767 8.70688 4.05098 8.71701 4.05297 8.72249C4.05488 8.72775 4.05604 8.72999 4.0563 8.73049C4.10373 8.82181 4.17819 8.89627 4.26952 8.94371C4.27001 8.94397 4.27226 8.94513 4.27752 8.94704C4.28299 8.94903 4.29312 8.95234 4.30961 8.95629C4.34427 8.96459 4.40145 8.97446 4.49611 8.98232C4.69932 8.9992 4.9711 9 5.415 9H7.585C8.02891 9 8.30068 8.9992 8.5039 8.98232C8.59855 8.97446 8.65574 8.96459 8.6904 8.95629C8.70688 8.95234 8.71701 8.94903 8.72249 8.94704C8.72775 8.94513 8.72999 8.94397 8.73049 8.94371C8.82181 8.89627 8.89627 8.82181 8.94371 8.73049C8.94397 8.72999 8.94513 8.72775 8.94704 8.72249C8.94903 8.71701 8.95234 8.70688 8.95629 8.6904C8.96459 8.65574 8.97446 8.59855 8.98232 8.5039C8.9992 8.30068 9 8.02891 9 7.585V5.415C9 4.9711 8.9992 4.69932 8.98232 4.49611C8.97446 4.40145 8.96459 4.34427 8.95629 4.30961C8.95234 4.29312 8.94903 4.28299 8.94704 4.27752C8.94513 4.27226 8.94397 4.27001 8.94371 4.26952C8.89627 4.17819 8.82181 4.10373 8.73049 4.0563C8.72999 4.05604 8.72775 4.05488 8.72249 4.05297C8.71701 4.05098 8.70688 4.04767 8.6904 4.04372C8.65574 4.03541 8.59855 4.02554 8.5039 4.01768C8.30068 4.00081 8.02891 4 7.585 4H5.415C4.9711 4 4.69932 4.00081 4.49611 4.01768C4.40145 4.02554 4.34427 4.03541 4.30961 4.04372C4.29312 4.04767 4.28299 4.05098 4.27752 4.05297ZM16.3783 2H18.6217C19.0173 1.99998 19.3734 1.99996 19.6694 2.02454C19.9866 2.05088 20.3234 2.11052 20.6524 2.28147C21.109 2.51866 21.4813 2.89096 21.7185 3.34757C21.8895 3.67665 21.9491 4.01343 21.9755 4.33059C22 4.62665 22 4.98267 22 5.37832V7.62168C22 8.01733 22 8.37336 21.9755 8.66942C21.9491 8.98657 21.8895 9.32336 21.7185 9.65244C21.4813 10.109 21.109 10.4813 20.6524 10.7185C20.3234 10.8895 19.9866 10.9491 19.6694 10.9755C19.3734 11 19.0174 11 18.6217 11H16.3783C15.9827 11 15.6266 11 15.3306 10.9755C15.0134 10.9491 14.6766 10.8895 14.3476 10.7185C13.891 10.4813 13.5187 10.109 13.2815 9.65244C13.1105 9.32336 13.0509 8.98657 13.0245 8.66942C13 8.37337 13 8.01735 13 7.62172V5.37828C13 4.98265 13 4.62664 13.0245 4.33059C13.0509 4.01344 13.1105 3.67665 13.2815 3.34757C13.5187 2.89096 13.891 2.51866 14.3476 2.28147C14.6766 2.11052 15.0134 2.05088 15.3306 2.02454C15.6266 1.99996 15.9827 1.99998 16.3783 2ZM15.2775 4.05297C15.2723 4.05488 15.27 4.05604 15.2695 4.0563C15.1782 4.10373 15.1037 4.17819 15.0563 4.26952C15.056 4.27001 15.0549 4.27226 15.053 4.27752C15.051 4.28299 15.0477 4.29312 15.0437 4.30961C15.0354 4.34427 15.0255 4.40145 15.0177 4.49611C15.0008 4.69932 15 4.9711 15 5.415V7.585C15 8.02891 15.0008 8.30068 15.0177 8.5039C15.0255 8.59855 15.0354 8.65574 15.0437 8.6904C15.0477 8.70688 15.051 8.71701 15.053 8.72249C15.0549 8.72775 15.056 8.72999 15.0563 8.73049C15.1037 8.82181 15.1782 8.89627 15.2695 8.94371C15.27 8.94397 15.2723 8.94513 15.2775 8.94704C15.283 8.94903 15.2931 8.95234 15.3096 8.95629C15.3443 8.96459 15.4015 8.97446 15.4961 8.98232C15.6993 8.9992 15.9711 9 16.415 9H18.585C19.0289 9 19.3007 8.9992 19.5039 8.98232C19.5986 8.97446 19.6557 8.96459 19.6904 8.95629C19.7069 8.95234 19.717 8.94903 19.7225 8.94704C19.7277 8.94513 19.73 8.94397 19.7305 8.94371C19.8218 8.89627 19.8963 8.82181 19.9437 8.73049C19.944 8.72999 19.9451 8.72775 19.947 8.72249C19.949 8.71701 19.9523 8.70688 19.9563 8.6904C19.9646 8.65573 19.9745 8.59855 19.9823 8.5039C19.9992 8.30068 20 8.02891 20 7.585V5.415C20 4.9711 19.9992 4.69932 19.9823 4.49611C19.9745 4.40145 19.9646 4.34427 19.9563 4.30961C19.9523 4.29312 19.949 4.28299 19.947 4.27752C19.9451 4.27226 19.944 4.27001 19.9437 4.26952C19.8963 4.17819 19.8218 4.10373 19.7305 4.0563C19.73 4.05604 19.7277 4.05488 19.7225 4.05297C19.717 4.05098 19.7069 4.04767 19.6904 4.04372C19.6557 4.03541 19.5986 4.02554 19.5039 4.01768C19.3007 4.00081 19.0289 4 18.585 4H16.415C15.9711 4 15.6993 4.00081 15.4961 4.01768C15.4015 4.02554 15.3443 4.03541 15.3096 4.04372C15.2931 4.04767 15.283 4.05098 15.2775 4.05297ZM5.37828 13H7.62172C8.01735 13 8.37337 13 8.66942 13.0245C8.98657 13.0509 9.32336 13.1105 9.65244 13.2815C10.109 13.5187 10.4813 13.891 10.7185 14.3476C10.8895 14.6766 10.9491 15.0134 10.9755 15.3306C11 15.6266 11 15.9827 11 16.3783V18.6217C11 19.0174 11 19.3734 10.9755 19.6694C10.9491 19.9866 10.8895 20.3234 10.7185 20.6524C10.4813 21.109 10.109 21.4813 9.65244 21.7185C9.32336 21.8895 8.98657 21.9491 8.66942 21.9755C8.37336 22 8.01733 22 7.62168 22H5.37832C4.98267 22 4.62665 22 4.33059 21.9755C4.01343 21.9491 3.67665 21.8895 3.34757 21.7185C2.89096 21.4813 2.51866 21.109 2.28147 20.6524C2.11052 20.3234 2.05088 19.9866 2.02454 19.6694C1.99996 19.3734 1.99998 19.0173 2 18.6217V16.3783C1.99998 15.9827 1.99996 15.6266 2.02454 15.3306C2.05088 15.0134 2.11052 14.6766 2.28147 14.3476C2.51866 13.891 2.89096 13.5187 3.34757 13.2815C3.67665 13.1105 4.01344 13.0509 4.33059 13.0245C4.62664 13 4.98265 13 5.37828 13ZM4.27752 15.053C4.27226 15.0549 4.27001 15.056 4.26952 15.0563C4.17819 15.1037 4.10373 15.1782 4.0563 15.2695C4.05604 15.27 4.05488 15.2723 4.05297 15.2775C4.05098 15.283 4.04767 15.2931 4.04372 15.3096C4.03541 15.3443 4.02554 15.4015 4.01768 15.4961C4.00081 15.6993 4 15.9711 4 16.415V18.585C4 19.0289 4.00081 19.3007 4.01768 19.5039C4.02554 19.5986 4.03541 19.6557 4.04372 19.6904C4.04767 19.7069 4.05098 19.717 4.05297 19.7225C4.05488 19.7277 4.05604 19.73 4.0563 19.7305C4.10373 19.8218 4.17819 19.8963 4.26952 19.9437C4.27001 19.944 4.27226 19.9451 4.27752 19.947C4.28299 19.949 4.29312 19.9523 4.30961 19.9563C4.34427 19.9646 4.40145 19.9745 4.49611 19.9823C4.69932 19.9992 4.9711 20 5.415 20H7.585C8.02891 20 8.30068 19.9992 8.5039 19.9823C8.59855 19.9745 8.65573 19.9646 8.6904 19.9563C8.70688 19.9523 8.71701 19.949 8.72249 19.947C8.72775 19.9451 8.72999 19.944 8.73049 19.9437C8.82181 19.8963 8.89627 19.8218 8.94371 19.7305C8.94397 19.73 8.94513 19.7277 8.94704 19.7225C8.94903 19.717 8.95234 19.7069 8.95629 19.6904C8.96459 19.6557 8.97446 19.5986 8.98232 19.5039C8.9992 19.3007 9 19.0289 9 18.585V16.415C9 15.9711 8.9992 15.6993 8.98232 15.4961C8.97446 15.4015 8.96459 15.3443 8.95629 15.3096C8.95234 15.2931 8.94903 15.283 8.94704 15.2775C8.94513 15.2723 8.94397 15.27 8.94371 15.2695C8.89627 15.1782 8.82181 15.1037 8.73049 15.0563C8.73026 15.0562 8.72968 15.0559 8.72861 15.0554C8.72733 15.0548 8.72536 15.054 8.72249 15.053C8.71701 15.051 8.70688 15.0477 8.6904 15.0437C8.65574 15.0354 8.59855 15.0255 8.5039 15.0177C8.30068 15.0008 8.02891 15 7.585 15H5.415C4.9711 15 4.69932 15.0008 4.49611 15.0177C4.40145 15.0255 4.34427 15.0354 4.30961 15.0437C4.29312 15.0477 4.28299 15.051 4.27752 15.053ZM16.3783 13H18.6217C19.0174 13 19.3734 13 19.6694 13.0245C19.9866 13.0509 20.3234 13.1105 20.6524 13.2815C21.109 13.5187 21.4813 13.891 21.7185 14.3476C21.8895 14.6766 21.9491 15.0134 21.9755 15.3306C22 15.6266 22 15.9827 22 16.3783V18.6217C22 19.0173 22 19.3734 21.9755 19.6694C21.9491 19.9866 21.8895 20.3234 21.7185 20.6524C21.4813 21.109 21.109 21.4813 20.6524 21.7185C20.3234 21.8895 19.9866 21.9491 19.6694 21.9755C19.3734 22 19.0173 22 18.6217 22H16.3783C15.9827 22 15.6266 22 15.3306 21.9755C15.0134 21.9491 14.6766 21.8895 14.3476 21.7185C13.891 21.4813 13.5187 21.109 13.2815 20.6524C13.1105 20.3234 13.0509 19.9866 13.0245 19.6694C13 19.3734 13 19.0174 13 18.6217V16.3783C13 15.9827 13 15.6266 13.0245 15.3306C13.0509 15.0134 13.1105 14.6766 13.2815 14.3476C13.5187 13.891 13.891 13.5187 14.3476 13.2815C14.6766 13.1105 15.0134 13.0509 15.3306 13.0245C15.6266 13 15.9827 13 16.3783 13ZM15.2775 15.053C15.2723 15.0549 15.27 15.056 15.2695 15.0563C15.1782 15.1037 15.1037 15.1782 15.0563 15.2695C15.056 15.27 15.0549 15.2723 15.053 15.2775C15.051 15.283 15.0477 15.2931 15.0437 15.3096C15.0354 15.3443 15.0255 15.4015 15.0177 15.4961C15.0008 15.6993 15 15.9711 15 16.415V18.585C15 19.0289 15.0008 19.3007 15.0177 19.5039C15.0255 19.5986 15.0354 19.6557 15.0437 19.6904C15.0477 19.7069 15.051 19.717 15.053 19.7225C15.0549 19.7277 15.056 19.73 15.0563 19.7305C15.1037 19.8218 15.1782 19.8963 15.2695 19.9437C15.27 19.944 15.2723 19.9451 15.2775 19.947C15.283 19.949 15.2931 19.9523 15.3096 19.9563C15.3443 19.9646 15.4015 19.9745 15.4961 19.9823C15.6993 19.9992 15.9711 20 16.415 20H18.585C19.0289 20 19.3007 19.9992 19.5039 19.9823C19.5986 19.9745 19.6557 19.9646 19.6904 19.9563C19.7069 19.9523 19.717 19.949 19.7225 19.947C19.7277 19.9451 19.73 19.944 19.7305 19.9437C19.8218 19.8963 19.8963 19.8218 19.9437 19.7305C19.944 19.73 19.9451 19.7277 19.947 19.7225C19.949 19.717 19.9523 19.7069 19.9563 19.6904C19.9646 19.6557 19.9745 19.5986 19.9823 19.5039C19.9992 19.3007 20 19.0289 20 18.585V16.415C20 15.9711 19.9992 15.6993 19.9823 15.4961C19.9745 15.4015 19.9646 15.3443 19.9563 15.3096C19.9523 15.2931 19.949 15.283 19.947 15.2775C19.9463 15.2756 19.9458 15.2741 19.9453 15.2729C19.9444 15.2709 19.9439 15.2698 19.9437 15.2695C19.8963 15.1782 19.8218 15.1037 19.7305 15.0563C19.73 15.056 19.7277 15.0549 19.7225 15.053C19.717 15.051 19.7069 15.0477 19.6904 15.0437C19.6557 15.0354 19.5986 15.0255 19.5039 15.0177C19.3007 15.0008 19.0289 15 18.585 15H16.415C15.9711 15 15.6993 15.0008 15.4961 15.0177C15.4015 15.0255 15.3443 15.0354 15.3096 15.0437C15.2931 15.0477 15.283 15.051 15.2775 15.053Z" fill="#0F1729"/>
</svg>