<?xml version="1.0" encoding="UTF-8" standalone="no"?>
<!-- Uploaded to: SVG Repo, www.svgrepo.com, Generator: SVG Repo Mixer Tools -->

<svg
   width="800px"
   height="800px"
   viewBox="0 0 24 24"
   fill="none"
   version="1.1"
   id="svg1"
   sodipodi:docname="undockall copy.svg"
   inkscape:version="1.3.2 (091e20e, 2023-11-25)"
   inkscape:export-filename="undockall.png"
   inkscape:export-xdpi="96"
   inkscape:export-ydpi="96"
   xmlns:inkscape="http://www.inkscape.org/namespaces/inkscape"
   xmlns:sodipodi="http://sodipodi.sourceforge.net/DTD/sodipodi-0.dtd"
   xmlns="http://www.w3.org/2000/svg"
   xmlns:svg="http://www.w3.org/2000/svg">
  <defs
     id="defs1" />
  <sodipodi:namedview
     id="namedview1"
     pagecolor="#ffffff"
     bordercolor="#000000"
     borderopacity="0.25"
     inkscape:showpageshadow="2"
     inkscape:pageopacity="0.0"
     inkscape:pagecheckerboard="0"
     inkscape:deskcolor="#d1d1d1"
     inkscape:zoom="0.4363356"
     inkscape:cx="363.25251"
     inkscape:cy="559.2026"
     inkscape:window-width="1440"
     inkscape:window-height="847"
     inkscape:window-x="0"
     inkscape:window-y="25"
     inkscape:window-maximized="1"
     inkscape:current-layer="svg1" />
  <path
     fill-rule="evenodd"
     clip-rule="evenodd"
     d="M 4.8883754,4.8711636 H 9.744569 c 0.469186,0 0.849515,0.3803453 0.849515,0.8495161 0,0.4691782 -0.380329,0.8495149 -0.849515,0.8495149 H 6.9392924 L 17.541765,16.597453 c 0.331736,0.331736 0.331736,0.869648 0,1.201385 -0.331736,0.331821 -0.869649,0.331821 -1.201385,0 L 5.7378909,7.7715959 v 2.7413311 c 0,0.469185 -0.3803366,0.849515 -0.8495155,0.849515 -0.4691702,0 -0.8495153,-0.38033 -0.8495153,-0.849515 V 5.7206797 c 0,-0.4691708 0.3803451,-0.8495161 0.8495153,-0.8495161 z"
     fill="#0f1729"
     id="path1-5"
     sodipodi:nodetypes="sssscccccsssss"
     style="stroke-width:0.849516" />
  <path
     fill-rule="evenodd"
     clip-rule="evenodd"
     d="M 3.4431813,13.984267 H 8.299375 c 0.469186,0 0.849515,0.380346 0.849515,0.849516 0,0.469179 -0.380329,0.849515 -0.849515,0.849515 H 5.4940983 l 5.3771367,4.595659 c 0.331736,0.331736 0.331736,0.869648 0,1.201385 -0.331736,0.331821 -0.869649,0.331821 -1.2013853,0 L 4.2926968,16.8847 v 2.74133 c 0,0.469185 -0.3803366,0.849515 -0.8495155,0.849515 -0.4691702,0 -0.8495153,-0.38033 -0.8495153,-0.849515 v -4.792247 c 0,-0.46917 0.3803451,-0.849516 0.8495153,-0.849516 z"
     fill="#0f1729"
     id="path1-5-5"
     sodipodi:nodetypes="sssscccccsssss"
     style="stroke-width:0.849516" />
  <path
     fill-rule="evenodd"
     clip-rule="evenodd"
     d="m 14.237519,3.4819258 h 4.856193 c 0.469186,0 0.849515,0.380346 0.849515,0.849516 0,0.469179 -0.380329,0.849515 -0.849515,0.849515 h -2.805276 l 5.995926,5.2144492 c 0.331736,0.331736 0.331736,0.869648 0,1.201385 -0.331736,0.331821 -0.869649,0.331821 -1.201386,0 L 15.087034,6.3823588 v 2.74133 c 0,0.4691848 -0.380336,0.8495148 -0.849515,0.8495148 -0.469171,0 -0.849516,-0.38033 -0.849516,-0.8495148 v -4.792247 c 0,-0.46917 0.380345,-0.849516 0.849516,-0.849516 z"
     fill="#0f1729"
     id="path1-5-5-2"
     sodipodi:nodetypes="sssscccccsssss"
     style="stroke-width:0.849516" />
</svg>
